<svg width="18" id="miSvg" height="20" viewBox="0 0 18 20" fill="none" xmlns="http://www.w3.org/2000/svg">
<path d="M9 0C6.61305 0 4.32387 0.948211 2.63604 2.63604C0.948211 4.32387 0 6.61305 0 9V20L3 17L6 20L9 17L12 20L15 17L18 20V9C18 6.61305 17.0518 4.32387 15.364 2.63604C13.6761 0.948211 11.3869 0 9 0ZM6 6C6.53043 6 7.03914 6.21071 7.41421 6.58579C7.78929 6.96086 8 7.46957 8 8C8 8.53043 7.78929 9.03914 7.41421 9.41421C7.03914 9.78929 6.53043 10 6 10C5.46957 10 4.96086 9.78929 4.58579 9.41421C4.21071 9.03914 4 8.53043 4 8C4 7.46957 4.21071 6.96086 4.58579 6.58579C4.96086 6.21071 5.46957 6 6 6ZM12 6C12.5304 6 13.0391 6.21071 13.4142 6.58579C13.7893 6.96086 14 7.46957 14 8C14 8.53043 13.7893 9.03914 13.4142 9.41421C13.0391 9.78929 12.5304 10 12 10C11.4696 10 10.9609 9.78929 10.5858 9.41421C10.2107 9.03914 10 8.53043 10 8C10 7.46957 10.2107 6.96086 10.5858 6.58579C10.9609 6.21071 11.4696 6 12 6Z" fill="black"/>
</svg>
