<svg width="482" height="400" viewBox="0 0 482 400" fill="none" xmlns="http://www.w3.org/2000/svg">
<path d="M149.5 7H203.5V62H267.5V7H319.5V62H353.5V107H420V62H475V194H446.5V223H419.5V285H366.5V342H420L419.5 393H366.5V342H312.5V288H167V342H116V393H60V342H116V285H60V223H32V194H6.5V62H57V107H116V62H149.5V7Z" fill="#6C0C94"/>
<path d="M420 107H353.5V62H319.5V7H267.5V62H203.5V7H149.5V62H116V107H57M420 107V62H475V194H446.5V223H419.5M420 107V194H392.5V223H419.5M419.5 223V285H366.5V393H419.5L420 342H312.5V288H167V342H60V393H116V285H60V223M60 223H32V194H6.5V62H57V107M60 223H86V194H58L57 107" stroke="black" stroke-width="13"/>
<rect x="135" y="152" width="50" height="73" rx="6" fill="black"/>
<rect x="298" y="152" width="50" height="73" rx="6" fill="black"/>
</svg>
